<svg width="85.000000" height="27.000000" viewBox="0 0 85 27" fill="none" xmlns="http://www.w3.org/2000/svg" xmlns:xlink="http://www.w3.org/1999/xlink">
	<desc>
			Created with Pixso.
	</desc>
	<defs/>
	<path id="Airbnb" d="M44.39 6.7C44.39 7.66 43.62 8.44 42.67 8.44C41.71 8.44 40.94 7.66 40.94 6.7C40.94 5.74 41.68 4.96 42.67 4.96C43.65 4.99 44.39 5.77 44.39 6.7ZM37.28 10.2L37.28 10.63C37.28 10.63 36.45 9.56 34.7 9.56C31.81 9.56 29.55 11.78 29.55 14.85C29.55 17.89 31.78 20.14 34.7 20.14C36.48 20.14 37.28 19.04 37.28 19.04L37.28 19.5C37.28 19.71 37.44 19.87 37.65 19.87L39.8 19.87L39.8 9.82L37.65 9.82C37.44 9.83 37.28 10.01 37.28 10.2ZM37.28 16.64C36.88 17.23 36.08 17.73 35.13 17.73C33.43 17.73 32.13 16.66 32.13 14.85C32.13 13.03 33.43 11.96 35.13 11.96C36.06 11.96 36.91 12.5 37.28 13.06L37.28 16.64ZM41.39 9.83L43.94 9.83L43.94 19.87L41.39 19.87L41.39 9.83ZM79.47 9.56C77.72 9.56 76.9 10.63 76.9 10.63L76.9 4.99L74.35 4.99L74.35 19.87L76.5 19.87C76.71 19.87 76.87 19.68 76.87 19.5L76.87 19.04C76.87 19.04 77.69 20.14 79.44 20.14C82.34 20.14 84.6 17.89 84.6 14.85C84.6 11.8 82.34 9.56 79.47 9.56ZM79.05 17.71C78.06 17.71 77.29 17.2 76.9 16.61L76.9 13.03C77.29 12.5 78.14 11.94 79.05 11.94C80.75 11.94 82.05 13 82.05 14.82C82.05 16.64 80.75 17.71 79.05 17.71ZM73.02 13.91L73.02 19.9L70.47 19.9L70.47 14.21C70.47 12.55 69.94 11.88 68.51 11.88C67.74 11.88 66.94 12.28 66.43 12.87L66.43 19.87L63.88 19.87L63.88 9.83L65.9 9.83C66.11 9.83 66.27 10.01 66.27 10.2L66.27 10.63C67.02 9.85 68 9.56 68.98 9.56C70.1 9.56 71.03 9.88 71.77 10.52C72.67 11.27 73.02 12.23 73.02 13.91ZM57.7 9.56C55.94 9.56 55.12 10.63 55.12 10.63L55.12 4.99L52.57 4.99L52.57 19.87L54.72 19.87C54.94 19.87 55.09 19.68 55.09 19.5L55.09 19.04C55.09 19.04 55.92 20.14 57.67 20.14C60.56 20.14 62.82 17.89 62.82 14.85C62.85 11.8 60.59 9.56 57.7 9.56ZM57.27 17.71C56.29 17.71 55.52 17.2 55.12 16.61L55.12 13.03C55.52 12.5 56.37 11.94 57.27 11.94C58.97 11.94 60.27 13 60.27 14.82C60.27 16.64 58.97 17.71 57.27 17.71ZM50.37 9.56C51.14 9.56 51.54 9.69 51.54 9.69L51.54 12.07C51.54 12.07 49.41 11.35 48.08 12.87L48.08 19.9L45.54 19.9L45.54 9.83L47.69 9.83C47.9 9.83 48.06 10.01 48.06 10.2L48.06 10.63C48.54 10.07 49.57 9.56 50.37 9.56ZM23.89 18.96C23.76 18.64 23.63 18.29 23.5 18C23.28 17.52 23.07 17.06 22.89 16.64C21.05 12.63 19.06 8.54 16.99 4.54L16.91 4.38C16.69 3.96 16.48 3.54 16.27 3.12C16.01 2.64 15.74 2.13 15.32 1.65C14.47 0.58 13.25 0 11.95 0C10.62 0 9.42 0.58 8.55 1.6C8.15 2.08 7.86 2.59 7.59 3.07C7.38 3.49 7.17 3.91 6.95 4.32L6.87 4.48C4.83 8.49 2.84 12.55 1.01 16.56C0.82 16.98 0.58 17.49 0.37 17.97C0.24 18.27 0.1 18.59 -0.03 18.93C-0.38 19.92 -0.48 20.86 -0.35 21.82C-0.06 23.82 1.27 25.51 3.1 26.25C3.79 26.55 4.51 26.68 5.25 26.68C5.47 26.68 5.73 26.65 5.94 26.63C6.82 26.52 7.72 26.23 8.6 25.72C9.69 25.11 10.72 24.22 11.89 22.94C13.06 24.22 14.12 25.11 15.19 25.72C16.06 26.23 16.96 26.52 17.84 26.63C18.05 26.65 18.32 26.68 18.53 26.68C19.28 26.68 20.02 26.55 20.68 26.25C22.54 25.51 23.84 23.8 24.13 21.82C24.35 20.88 24.24 19.95 23.89 18.96ZM11.92 20.35C10.48 18.53 9.56 16.82 9.24 15.38C9.1 14.77 9.08 14.23 9.16 13.75C9.21 13.33 9.37 12.95 9.58 12.63C10.09 11.91 10.94 11.46 11.92 11.46C12.9 11.46 13.78 11.88 14.26 12.63C14.47 12.95 14.63 13.33 14.68 13.75C14.76 14.23 14.73 14.79 14.6 15.38C14.28 16.8 13.35 18.51 11.92 20.35ZM22.51 21.61C22.33 22.99 21.4 24.2 20.1 24.73C19.46 25 18.77 25.08 18.08 25C17.42 24.92 16.75 24.7 16.06 24.3C15.11 23.77 14.15 22.94 13.03 21.71C14.79 19.55 15.85 17.57 16.25 15.81C16.43 14.98 16.46 14.23 16.38 13.54C16.27 12.87 16.03 12.26 15.66 11.72C14.84 10.52 13.46 9.83 11.92 9.83C10.38 9.83 9 10.55 8.17 11.72C7.8 12.26 7.56 12.87 7.46 13.54C7.35 14.23 7.38 15.01 7.59 15.81C7.99 17.57 9.08 19.58 10.8 21.74C9.71 22.97 8.73 23.8 7.78 24.33C7.09 24.73 6.42 24.95 5.76 25.02C5.04 25.11 4.35 25 3.74 24.76C2.44 24.22 1.51 23.02 1.32 21.63C1.24 20.96 1.3 20.3 1.56 19.55C1.64 19.28 1.78 19.01 1.91 18.69C2.09 18.27 2.31 17.81 2.52 17.36C4.35 13.38 6.34 9.26 8.39 5.31L8.47 5.15C8.68 4.75 8.89 4.32 9.1 3.92C9.32 3.49 9.56 3.09 9.85 2.75C10.41 2.11 11.15 1.76 11.97 1.76C12.8 1.76 13.54 2.11 14.1 2.75C14.39 3.09 14.63 3.5 14.84 3.92C15.05 4.32 15.26 4.75 15.48 5.15L15.56 5.31C17.57 9.28 19.51 13.29 21.37 17.33C21.58 17.76 21.77 18.27 21.98 18.7C22.12 19.02 22.25 19.28 22.33 19.55C22.54 20.24 22.62 20.91 22.51 21.61Z" fill="#718087" fill-opacity="1.000000" fill-rule="nonzero"/>
	<path id="Airbnb" d="" fill="#707070" fill-opacity="0" fill-rule="evenodd"/>
</svg>
