<svg width="21.000000" height="25.000000" viewBox="0 0 21 25" fill="none" xmlns="http://www.w3.org/2000/svg" xmlns:xlink="http://www.w3.org/1999/xlink">
	<desc>
			Created with Pixso.
	</desc>
	<defs/>
	<path id="Icon" d="M16.47 25L16.47 4.99L0 4.99L0 25L3.83 25L3.83 23.81C3.83 22.32 5 21.1 6.42 21.1L10.05 21.1C11.47 21.1 12.64 22.32 12.64 23.81L12.64 25L16.47 25ZM4.54 17.84C4.54 17.95 4.53 18.06 4.49 18.16C4.45 18.26 4.4 18.35 4.32 18.42C4.25 18.5 4.17 18.55 4.07 18.59C3.98 18.63 3.88 18.65 3.78 18.65L1.96 18.65C1.86 18.65 1.75 18.63 1.66 18.59C1.57 18.55 1.48 18.5 1.41 18.42C1.34 18.35 1.28 18.26 1.25 18.16C1.21 18.06 1.19 17.95 1.19 17.84L1.19 15.95C1.19 15.84 1.21 15.73 1.25 15.63C1.28 15.53 1.34 15.44 1.41 15.37C1.48 15.29 1.57 15.24 1.66 15.19C1.75 15.15 1.86 15.13 1.96 15.13L3.78 15.13C3.88 15.13 3.98 15.15 4.07 15.19C4.17 15.24 4.25 15.29 4.32 15.37C4.4 15.44 4.45 15.53 4.49 15.63C4.53 15.73 4.54 15.84 4.54 15.95L4.54 17.84ZM4.54 12.23C4.54 12.34 4.53 12.45 4.49 12.55C4.45 12.64 4.4 12.74 4.32 12.81C4.25 12.89 4.17 12.94 4.07 12.98C3.98 13.02 3.88 13.04 3.78 13.04L1.96 13.04C1.86 13.04 1.75 13.02 1.66 12.98C1.57 12.94 1.48 12.89 1.41 12.81C1.34 12.74 1.28 12.64 1.25 12.55C1.21 12.45 1.19 12.34 1.19 12.23L1.19 10.33C1.19 10.22 1.21 10.12 1.25 10.02C1.28 9.92 1.34 9.83 1.41 9.76C1.48 9.68 1.57 9.61 1.66 9.57C1.75 9.53 1.86 9.51 1.96 9.51L3.78 9.51C3.88 9.51 3.98 9.53 4.07 9.57C4.17 9.61 4.25 9.68 4.32 9.76C4.4 9.83 4.45 9.92 4.49 10.02C4.53 10.12 4.54 10.22 4.54 10.33L4.54 12.23ZM6.56 10.23C6.56 10.13 6.57 10.02 6.61 9.92C6.65 9.82 6.71 9.73 6.78 9.66C6.85 9.58 6.93 9.52 7.03 9.48C7.12 9.44 7.22 9.42 7.33 9.42L8.95 9.42C9.05 9.42 9.16 9.44 9.25 9.48C9.34 9.52 9.43 9.58 9.5 9.66C9.57 9.73 9.62 9.82 9.66 9.92C9.7 10.02 9.72 10.13 9.72 10.23L9.72 11.94C9.72 12.04 9.7 12.14 9.66 12.24C9.62 12.34 9.57 12.43 9.5 12.51C9.43 12.58 9.34 12.65 9.25 12.69C9.16 12.73 9.05 12.75 8.95 12.75L7.33 12.75C7.22 12.75 7.12 12.73 7.03 12.69C6.93 12.65 6.85 12.58 6.78 12.51C6.71 12.43 6.65 12.34 6.61 12.24C6.58 12.14 6.56 12.04 6.56 11.94L6.56 10.23ZM9.77 17.6C9.77 17.71 9.75 17.81 9.71 17.9C9.67 18 9.62 18.09 9.55 18.17C9.48 18.24 9.39 18.31 9.3 18.35C9.2 18.39 9.1 18.41 9 18.41L7.33 18.41C7.22 18.41 7.12 18.39 7.03 18.35C6.93 18.31 6.85 18.24 6.78 18.17C6.71 18.09 6.65 18 6.61 17.9C6.57 17.81 6.56 17.71 6.56 17.6L6.56 15.84C6.56 15.74 6.57 15.63 6.61 15.53C6.65 15.43 6.71 15.34 6.78 15.27C6.85 15.19 6.93 15.13 7.03 15.09C7.12 15.05 7.22 15.03 7.33 15.03L9 15.03C9.1 15.03 9.2 15.05 9.3 15.09C9.39 15.13 9.48 15.19 9.55 15.27C9.62 15.34 9.67 15.43 9.71 15.53C9.75 15.63 9.77 15.74 9.77 15.84L9.77 17.6ZM11.92 10.33C11.92 10.22 11.94 10.12 11.98 10.02C12.02 9.92 12.07 9.83 12.14 9.76C12.22 9.68 12.3 9.61 12.39 9.57C12.49 9.53 12.59 9.51 12.69 9.51L14.51 9.51C14.61 9.51 14.72 9.53 14.81 9.57C14.9 9.61 14.99 9.68 15.06 9.76C15.13 9.83 15.18 9.92 15.22 10.02C15.26 10.12 15.28 10.22 15.28 10.33L15.28 12.23C15.28 12.34 15.26 12.45 15.22 12.55C15.18 12.64 15.13 12.74 15.06 12.81C14.99 12.89 14.9 12.94 14.81 12.98C14.72 13.02 14.61 13.04 14.51 13.04L12.69 13.04C12.59 13.04 12.49 13.02 12.39 12.98C12.3 12.94 12.22 12.89 12.14 12.81C12.07 12.74 12.02 12.64 11.98 12.55C11.94 12.45 11.92 12.34 11.92 12.23L11.92 10.33ZM12.39 18.59C12.3 18.55 12.22 18.5 12.15 18.42C12.07 18.35 12.02 18.26 11.98 18.16C11.94 18.06 11.92 17.95 11.92 17.84L11.92 15.95C11.92 15.84 11.94 15.73 11.98 15.63C12.02 15.53 12.07 15.44 12.15 15.37C12.22 15.29 12.3 15.24 12.39 15.19C12.49 15.15 12.59 15.13 12.69 15.13L14.51 15.13C14.61 15.13 14.72 15.15 14.81 15.19C14.9 15.24 14.99 15.29 15.06 15.37C15.13 15.44 15.18 15.53 15.22 15.63C15.26 15.73 15.28 15.84 15.28 15.95L15.28 17.84C15.28 17.95 15.26 18.06 15.22 18.16C15.18 18.26 15.13 18.35 15.06 18.42C14.99 18.5 14.9 18.55 14.81 18.59C14.72 18.63 14.61 18.65 14.51 18.65L12.69 18.65C12.59 18.65 12.49 18.63 12.39 18.59Z" fill="#FFFFFF" fill-opacity="1.000000" fill-rule="nonzero"/>
	<path id="Icon" d="" fill="#707070" fill-opacity="0" fill-rule="evenodd"/>
	<path id="Icon" d="M19.95 0L4.08 0L1.02 3.36L16.89 3.36L19.95 0Z" fill="#FFFFFF" fill-opacity="1.000000" fill-rule="nonzero"/>
	<path id="Icon" d="" fill="#707070" fill-opacity="0" fill-rule="evenodd"/>
	<path id="Icon" d="M18.01 23.78L20.99 20.49L20.99 1.19L18.01 4.47L18.01 23.78Z" fill="#FFFFFF" fill-opacity="1.000000" fill-rule="nonzero"/>
	<path id="Icon" d="" fill="#707070" fill-opacity="0" fill-rule="evenodd"/>
</svg>
