<svg width="71.000000" height="23.000000" viewBox="0 0 71 23" fill="none" xmlns="http://www.w3.org/2000/svg" xmlns:xlink="http://www.w3.org/1999/xlink">
	<desc>
			Created with Pixso.
	</desc>
	<defs/>
	<path id="Buzz" d="M14.68 10.84C15.86 10.93 16.85 11.41 17.7 12.31C18.55 13.21 18.97 14.44 18.97 16.01C18.97 17.91 18.36 19.47 17.08 20.61C15.81 21.75 14.02 22.32 11.61 22.32L0 22.32L0 -0.16L11.56 -0.16C13.59 -0.16 15.24 0.41 16.47 1.5C17.7 2.64 18.31 4.11 18.31 5.96C18.31 7.38 17.93 8.47 17.13 9.32C16.33 10.18 15.53 10.6 14.63 10.7L14.68 10.84ZM5.52 9.13L10.33 9.13C11.14 9.13 11.8 8.9 12.32 8.42C12.79 7.95 13.07 7.38 13.07 6.57C13.07 5.86 12.84 5.34 12.36 4.91C11.89 4.49 11.28 4.3 10.57 4.3L5.52 4.3L5.52 9.13ZM10.62 17.86C11.47 17.86 12.17 17.62 12.65 17.19C13.12 16.77 13.35 16.15 13.35 15.35C13.35 14.59 13.12 14.02 12.6 13.59C12.13 13.16 11.47 12.93 10.71 12.93L5.52 12.93L5.52 17.86L10.62 17.86ZM38.09 22.32L32.76 22.32L32.76 20.7C31.44 22.13 29.69 22.84 27.61 22.84C25.63 22.84 24.07 22.17 22.89 20.89C21.71 19.61 21.1 17.91 21.1 15.82L21.1 5.48L26.38 5.48L26.38 14.68C26.38 15.68 26.67 16.48 27.19 17.1C27.71 17.72 28.41 18 29.26 18C30.35 18 31.2 17.62 31.81 16.86C32.43 16.1 32.71 14.92 32.71 13.31L32.71 5.48L38.04 5.48L38.09 22.32ZM54.57 22.32L40.4 22.32L40.4 21.32L47.06 9.75L40.59 9.75L40.59 5.48L54.47 5.48L54.47 6.48L47.82 18.05L54.52 18.05L54.57 22.32ZM71 22.32L56.88 22.32L56.88 21.32L63.49 9.75L57.02 9.75L57.02 5.48L70.9 5.48L70.9 6.48L64.24 18.05L70.95 18.05L71 22.32Z" fill="#718087" fill-opacity="1.000000" fill-rule="nonzero"/>
	<path id="Buzz" d="" fill="#707070" fill-opacity="0" fill-rule="evenodd"/>
</svg>
