<svg width="98.000000" height="18.000000" viewBox="0 0 98 18" fill="none" xmlns="http://www.w3.org/2000/svg" xmlns:xlink="http://www.w3.org/1999/xlink">
	<desc>
			Created with Pixso.
	</desc>
	<defs/>
	<path id="H" d="M32.91 -0.71L32.91 6.47L22.9 6.47L22.9 -0.71L19.26 -0.72L19.26 17.4L22.9 17.4L22.9 9.62L32.91 9.62L32.91 17.4L36.57 17.4L36.57 -0.71L32.91 -0.71Z" fill="#718087" fill-opacity="1.000000" fill-rule="nonzero"/>
	<path id="H" d="" fill="#707070" fill-opacity="0" fill-rule="evenodd"/>
	<path id="E" d="M81.42 -0.71L81.42 17.4L97.42 17.4L95.39 14.21L85.08 14.21L85.08 9.62L95.06 9.62L95.06 6.55L85.08 6.55L85.08 2.4L95.37 2.4L97.36 -0.71L81.42 -0.71Z" fill="#718087" fill-opacity="1.000000" fill-rule="nonzero"/>
	<path id="E" d="" fill="#707070" fill-opacity="0" fill-rule="evenodd"/>
	<path id="C" d="M5.7 -0.72C1.91 -0.72 -0.01 1.59 -0.01 4.94L-0.01 11.71C-0.01 15.59 2.46 17.4 5.68 17.4L17.12 17.4L15 14.09L6.39 14.09C4.56 14.09 3.76 13.43 3.76 11.38L3.76 5.24C3.76 3.26 4.44 2.49 6.44 2.49L15.09 2.49L17.13 -0.72L5.7 -0.72Z" fill="#718087" fill-opacity="1.000000" fill-rule="nonzero"/>
	<path id="C" d="" fill="#707070" fill-opacity="0" fill-rule="evenodd"/>
	<path id="S" d="M65.42 -0.72C63.23 -0.72 60.98 0.59 60.98 3.98L60.98 4.85C60.98 8.38 63.14 9.73 65.3 9.74L72.89 9.74C73.68 9.74 74.32 9.87 74.32 11.2L74.32 12.74C74.3 13.94 73.7 14.21 72.86 14.21L62.88 14.21L60.84 17.4L73.1 17.4C76.05 17.4 78.06 15.93 78.06 12.53L78.06 11.28C78.06 8 76.2 6.44 73.31 6.44L66.06 6.44C65.26 6.44 64.7 6.23 64.7 5.04L64.7 3.78C64.7 2.77 65.08 2.4 66.02 2.4L75.52 2.4L77.51 -0.73L65.42 -0.72Z" fill="#718087" fill-opacity="1.000000" fill-rule="nonzero"/>
	<path id="S" d="" fill="#707070" fill-opacity="0" fill-rule="evenodd"/>
	<path id="A" d="M47.16 -0.71L38.57 17.4L42.63 17.4L44.3 13.66L53.64 13.66L55.31 17.4L59.38 17.4L50.77 -0.71L47.16 -0.71ZM48.96 3.05L52.26 10.58L45.68 10.58L48.96 3.05Z" fill="#718087" fill-opacity="1.000000" fill-rule="nonzero"/>
	<path id="A" d="" fill="#707070" fill-opacity="0" fill-rule="evenodd"/>
</svg>
