<svg width="20.000000" height="29.000000" viewBox="0 0 20 29" fill="none" xmlns="http://www.w3.org/2000/svg" xmlns:xlink="http://www.w3.org/1999/xlink">
	<desc>
			Created with Pixso.
	</desc>
	<defs>
		<filter id="filter_1_15_dd" x="-0.000977" y="0.000000" width="19.205994" height="28.773926" filterUnits="userSpaceOnUse" color-interpolation-filters="sRGB">
			<feFlood flood-opacity="0" result="BackgroundImageFix"/>
			<feColorMatrix in="SourceAlpha" type="matrix" values="0 0 0 0 0 0 0 0 0 0 0 0 0 0 0 0 0 0 127 0" result="hardAlpha"/>
			<feOffset dx="0" dy="4"/>
			<feGaussianBlur stdDeviation="1.33333"/>
			<feComposite in2="hardAlpha" operator="out" k2="-1" k3="1"/>
			<feColorMatrix type="matrix" values="0 0 0 0 0 0 0 0 0 0 0 0 0 0 0 0 0 0 0.25 0"/>
			<feBlend mode="normal" in2="BackgroundImageFix" result="effect_dropShadow_1"/>
			<feBlend mode="normal" in="SourceGraphic" in2="effect_dropShadow_1" result="shape"/>
		</filter>
	</defs>
	<g filter="url(#filter_1_15_dd)">
		<path id="Icon 11" d="M7.11 11.72C7.04 11.72 5.32 11.72 4.54 11.72C4.12 11.72 3.99 11.57 3.99 11.17C3.99 10.13 3.99 9.07 3.99 8.03C3.99 7.61 4.15 7.48 4.54 7.48L7.11 7.48C7.11 7.4 7.11 5.9 7.11 5.19C7.11 4.15 7.3 3.17 7.82 2.26C8.36 1.32 9.14 0.7 10.13 0.33C10.78 0.1 11.43 0 12.13 0L14.68 0C15.04 0 15.2 0.15 15.2 0.52L15.2 3.48C15.2 3.84 15.04 4 14.68 4C13.98 4 13.28 4 12.57 4.03C11.87 4.03 11.51 4.36 11.51 5.09C11.48 5.87 11.51 6.62 11.51 7.43L14.52 7.43C14.94 7.43 15.1 7.59 15.1 8L15.1 11.15C15.1 11.57 14.97 11.7 14.52 11.7C13.59 11.7 11.59 11.7 11.51 11.7L11.51 20.17C11.51 20.61 11.38 20.77 10.91 20.77C9.82 20.77 8.75 20.77 7.66 20.77C7.27 20.77 7.11 20.61 7.11 20.22C7.11 17.49 7.11 11.8 7.11 11.72Z" fill="#000000" fill-opacity="1.000000" fill-rule="nonzero"/>
		<path id="Icon 11" d="" fill="#707070" fill-opacity="0" fill-rule="evenodd"/>
	</g>
</svg>
