<svg width="96.000000" height="23.000000" viewBox="0 0 96 23" fill="none" xmlns="http://www.w3.org/2000/svg" xmlns:xlink="http://www.w3.org/1999/xlink">
	<desc>
			Created with Pixso.
	</desc>
	<defs/>
	<g opacity="0.800000">
		<path id="Gucc" d="M20.98 15.2L20.98 20.16C19.18 21.74 14.87 22.69 11.66 22.69C8.46 22.69 -0.4 20.7 -0.4 11.38C-0.4 2.07 8.03 0.06 11.44 0.06C14.85 0.06 18.47 0.68 20.58 2.07L20.58 6.43C20.58 6.97 19.83 6.92 19.83 6.43C19.78 5.68 17.77 1.22 12.76 1.32C7.36 1.43 3.7 5.64 3.7 11.19C3.7 16.73 7.25 21.5 12.62 21.35C14.36 21.3 16.17 20.75 17.05 20.03L17.07 15.2C17.07 13.82 16.22 13.32 15.37 13.32C14.82 13.32 14.82 12.53 15.37 12.53L22.68 12.53C23.23 12.53 23.23 13.37 22.68 13.32C21.83 13.32 20.98 13.82 20.98 15.2ZM70.25 6.43C70.25 6.97 69.7 6.93 69.7 6.43C69.65 5.69 67.65 1.08 62.64 1.18C57.23 1.28 53.58 5.64 53.58 11.19C53.58 16.74 57.08 21.65 62.44 21.5C67.8 21.35 70.35 16.1 70.55 15.4C70.76 14.71 71.1 14.81 71.1 15.36L71.1 19.42C68.9 21.01 64.74 22.69 61.54 22.69C58.34 22.69 49.47 20.71 49.47 11.39C49.47 2.07 57.89 -0.16 61.29 -0.16C64.7 -0.16 68.15 0.68 70.26 2.07L70.25 6.43ZM47.57 0.38C48.37 0.38 48.37 1.13 47.57 1.13C46.72 1.13 45.87 1.62 45.87 3.01L45.77 13.84C45.77 19.03 41.52 22.84 36.28 22.84C31.03 22.84 26.94 19.03 26.94 13.84L26.94 3.01C26.94 1.62 26.09 1.13 25.24 1.13C24.44 1.13 24.44 0.38 25.24 0.38L32.65 0.38C33.45 0.38 33.45 1.13 32.65 1.13C31.79 1.13 30.94 1.62 30.94 3.01L30.94 15.1C30.94 18.76 33.96 21.73 37.65 21.73C41.35 21.73 44.35 18.02 44.35 14.36L44.17 3.01C44.17 1.62 43.32 1.13 42.46 1.13C41.66 1.13 41.66 0.38 42.46 0.38L47.57 0.38ZM94.74 6.43C94.74 6.97 94.19 6.93 94.19 6.43C94.14 5.69 92.14 1.08 87.13 1.18C81.72 1.28 78.06 5.64 78.06 11.19C78.06 16.74 81.57 21.65 86.93 21.5C92.29 21.35 94.84 16.1 95.04 15.4C95.24 14.71 95.6 14.81 95.6 15.36L95.6 19.42C93.39 21.01 89.24 22.69 86.03 22.69C82.83 22.69 73.96 20.71 73.96 11.39C73.96 2.07 82.38 -0.16 85.78 -0.16C89.19 -0.16 92.64 0.68 94.75 2.07L94.74 6.43Z" fill="#718087" fill-opacity="1.000000" fill-rule="nonzero"/>
		<path id="Gucc" d="" fill="#707070" fill-opacity="0" fill-rule="evenodd"/>
	</g>
</svg>
