<svg width="21.000000" height="21.000000" viewBox="0 0 21 21" fill="none" xmlns="http://www.w3.org/2000/svg" xmlns:xlink="http://www.w3.org/1999/xlink">
	<desc>
			Created with Pixso.
	</desc>
	<defs/>
	<path id="homeS" d="M19.9 5.22L17.66 3.87L17.66 -0.72C17.66 -0.87 17.55 -0.98 17.4 -0.98L14.09 -0.98C13.94 -0.98 13.82 -0.87 13.82 -0.72L13.82 1.55L9.66 -0.97C9.6 -0.98 9.44 -1 9.38 -0.97L-0.85 5.22C-0.93 5.27 -0.97 5.35 -0.97 5.45L-0.97 7.61C-0.97 7.71 -0.92 7.79 -0.84 7.84C-0.76 7.89 -0.66 7.89 -0.58 7.84L0.96 6.94L0.96 17.52L0.23 17.52C0.08 17.52 -0.03 17.63 -0.03 17.78L-0.03 19.73C-0.03 19.88 0.08 20 0.23 20L18.82 20C18.97 20 19.09 19.88 19.09 19.73L19.09 17.78C19.09 17.63 18.97 17.52 18.82 17.52L18.09 17.52L18.09 6.94L19.63 7.84C19.67 7.86 19.72 7.87 19.76 7.87C19.81 7.87 19.85 7.86 19.89 7.84C19.98 7.79 20.03 7.71 20.03 7.61L20.03 5.45C20.03 5.35 19.98 5.27 19.9 5.22ZM14.35 -0.46L17.14 -0.46L17.14 3.55L14.35 1.87L14.35 -0.46ZM18.56 19.47L0.49 19.47L0.49 18.04L18.56 18.04L18.56 19.47ZM11.89 17.52L7.16 17.52L7.16 9.32L11.89 9.32L11.89 17.52ZM17.57 17.52L12.41 17.52L12.41 9.06C12.41 8.91 12.3 8.79 12.15 8.79L6.9 8.79C6.76 8.79 6.64 8.91 6.64 9.06L6.64 17.52L1.49 17.52L1.49 6.63L9.52 1.93L17.57 6.63L17.57 17.52ZM19.5 7.16L9.65 1.4C9.61 1.38 9.57 1.37 9.52 1.37C9.48 1.37 9.43 1.38 9.39 1.4L-0.45 7.15L-0.45 5.59L9.52 -0.44L19.5 5.59L19.5 7.16Z" fill="#31353B" fill-opacity="1.000000" fill-rule="nonzero"/>
	<path id="homeS" d="" fill="#707070" fill-opacity="0" fill-rule="evenodd"/>
</svg>
