<svg width="21.000000" height="21.000000" viewBox="0 0 21 21" fill="none" xmlns="http://www.w3.org/2000/svg" xmlns:xlink="http://www.w3.org/1999/xlink">
	<desc>
			Created with Pixso.
	</desc>
	<defs/>
	<path id="Vector" d="M15.74 0L5.24 0C2.36 0 0 2.36 0 5.24L0 15.75C0 18.63 2.36 21 5.24 21L15.74 21C18.63 21 20.99 18.63 20.99 15.75L20.99 5.24C20.99 2.36 18.63 0 15.74 0ZM19.24 15.75C19.24 17.67 17.68 19.25 15.74 19.25L5.24 19.25C3.32 19.25 1.75 17.67 1.75 15.75L1.75 5.24C1.75 3.32 3.32 1.75 5.24 1.75L15.74 1.75C17.68 1.75 19.24 3.32 19.24 5.24L19.24 15.75Z" fill="#000000" fill-opacity="1.000000" fill-rule="nonzero"/>
	<path id="Vector" d="" fill="#707070" fill-opacity="0" fill-rule="evenodd"/>
	<path id="Vector" d="M17.49 4.81C17.49 5.53 16.91 6.12 16.18 6.12C15.46 6.12 14.87 5.53 14.87 4.81C14.87 4.08 15.46 3.49 16.18 3.49C16.91 3.49 17.49 4.08 17.49 4.81Z" fill="#000000" fill-opacity="1.000000" fill-rule="nonzero"/>
	<path id="Vector" d="" fill="#707070" fill-opacity="0" fill-rule="evenodd"/>
	<path id="Vector" d="M10.24 5.25C7.34 5.25 4.99 7.6 4.99 10.49C4.99 13.39 7.34 15.75 10.24 15.75C13.14 15.75 15.49 13.39 15.49 10.49C15.49 7.6 13.14 5.25 10.24 5.25ZM10.24 14C8.31 14 6.74 12.43 6.74 10.49C6.74 8.56 8.31 7 10.24 7C12.18 7 13.74 8.56 13.74 10.49C13.74 12.43 12.18 14 10.24 14Z" fill="#000000" fill-opacity="1.000000" fill-rule="nonzero"/>
	<path id="Vector" d="" fill="#707070" fill-opacity="0" fill-rule="evenodd"/>
</svg>
