<svg width="19.000000" height="18.000000" viewBox="0 0 19 18" fill="none" xmlns="http://www.w3.org/2000/svg" xmlns:xlink="http://www.w3.org/1999/xlink">
	<desc>
			Created with Pixso.
	</desc>
	<defs/>
	<path id="Vector" d="M17.09 0L1.89 0C0.85 0 -0.01 0.81 -0.01 1.8L-0.01 16.2C-0.01 17.18 0.85 18 1.89 18L17.09 18C18.14 18 18.99 17.18 18.99 16.2L18.99 1.8C18.99 0.81 18.14 0 17.09 0ZM5.69 15.3L2.84 15.3L2.84 7.19L5.69 7.19L5.69 15.3ZM4.27 5.66C3.32 5.66 2.56 4.94 2.56 4.05C2.56 3.14 3.32 2.42 4.27 2.42C5.22 2.42 5.98 3.14 5.98 4.05C5.98 4.94 5.22 5.66 4.27 5.66ZM16.14 15.3L13.29 15.3L13.29 10.53C13.29 9.81 12.63 9.17 11.87 9.17C11.11 9.17 10.44 9.81 10.44 10.53L10.44 15.3L7.59 15.3L7.59 7.19L10.44 7.19L10.44 8.28C10.92 7.56 11.96 7.02 12.82 7.02C14.62 7.02 16.14 8.45 16.14 10.16L16.14 15.3Z" fill="#000000" fill-opacity="1.000000" fill-rule="nonzero"/>
	<path id="Vector" d="" fill="#707070" fill-opacity="0" fill-rule="evenodd"/>
</svg>
