<svg width="99.000000" height="21.000000" viewBox="0 0 99 21" fill="none" xmlns="http://www.w3.org/2000/svg" xmlns:xlink="http://www.w3.org/1999/xlink">
	<desc>
			Created with Pixso.
	</desc>
	<defs/>
	<path id="Vector" d="M98.04 8.95L98.04 7.29L95.99 7.29L95.99 4.72L93.95 5.34L93.95 7.29L90.9 7.29L90.9 6.2C90.87 5.79 90.99 5.38 91.24 5.05C91.35 4.92 91.5 4.82 91.66 4.75C91.83 4.69 92 4.66 92.18 4.67C92.49 4.67 92.79 4.74 93.07 4.87L93.15 3.16C92.78 3.05 92.36 2.98 91.97 3C91.41 2.99 90.85 3.12 90.35 3.39C89.88 3.64 89.49 4.02 89.24 4.49C88.97 4.98 88.83 5.54 88.84 6.1L88.84 7.29L87.41 7.29L87.41 8.95L88.84 8.95L88.84 15.93L90.9 15.93L90.9 8.95L93.95 8.95L93.95 13.38C93.95 15.21 94.81 16.13 96.51 16.13C96.8 16.13 97.1 16.1 97.38 16.04C97.6 16 97.82 15.93 98.02 15.84L98.05 14.15C97.92 14.23 97.69 14.34 97.55 14.38C97.42 14.42 97.28 14.45 97.14 14.45C96.98 14.46 96.82 14.44 96.67 14.39C96.52 14.33 96.38 14.25 96.27 14.13C96.05 13.81 95.95 13.41 95.99 13.02L95.99 8.95L98.04 8.95ZM82.82 14.45C82.49 14.47 82.16 14.41 81.86 14.28C81.56 14.16 81.29 13.96 81.07 13.72C80.62 13.12 80.4 12.39 80.44 11.64C80.39 10.88 80.62 10.12 81.07 9.51C81.28 9.26 81.55 9.07 81.85 8.94C82.15 8.81 82.48 8.75 82.8 8.76C83.12 8.75 83.44 8.8 83.73 8.93C84.02 9.05 84.28 9.24 84.49 9.48C84.94 10.09 85.16 10.83 85.11 11.59C85.16 12.35 84.95 13.1 84.53 13.73C84.32 13.97 84.05 14.17 83.76 14.29C83.46 14.42 83.14 14.47 82.82 14.45ZM82.91 7.08C82.3 7.05 81.68 7.14 81.1 7.35C80.52 7.57 80 7.9 79.55 8.32C79.13 8.78 78.81 9.31 78.6 9.89C78.39 10.47 78.3 11.09 78.34 11.71C78.31 12.3 78.4 12.89 78.6 13.44C78.8 14 79.12 14.51 79.52 14.94C79.94 15.34 80.44 15.66 80.99 15.86C81.54 16.07 82.12 16.16 82.7 16.13C83.31 16.16 83.91 16.06 84.48 15.85C85.05 15.63 85.56 15.3 86 14.87C86.41 14.42 86.73 13.89 86.94 13.32C87.15 12.74 87.24 12.13 87.21 11.52C87.28 10.33 86.87 9.16 86.07 8.27C85.66 7.86 85.16 7.55 84.62 7.34C84.07 7.14 83.49 7.05 82.91 7.08ZM75.02 7.08C74.17 7.05 73.33 7.31 72.64 7.82C72.35 8.04 72.11 8.33 71.95 8.67C71.78 9 71.7 9.37 71.71 9.74C71.7 10.1 71.77 10.47 71.91 10.81C72.05 11.12 72.26 11.39 72.53 11.61C72.91 11.9 73.33 12.13 73.77 12.31C74.13 12.45 74.48 12.61 74.81 12.79C74.99 12.88 75.15 13.01 75.27 13.17C75.36 13.31 75.41 13.48 75.4 13.66C75.4 14.24 74.96 14.52 74.07 14.52C73.69 14.51 73.31 14.44 72.95 14.31C72.54 14.18 72.15 13.98 71.8 13.73L71.71 15.65C72.06 15.8 72.46 15.93 72.83 16C73.21 16.08 73.6 16.13 73.99 16.13C74.89 16.18 75.78 15.92 76.51 15.39C76.81 15.16 77.05 14.87 77.21 14.52C77.38 14.18 77.46 13.81 77.45 13.43C77.46 12.89 77.28 12.37 76.94 11.95C76.47 11.45 75.88 11.08 75.23 10.86C74.79 10.71 74.38 10.5 74.01 10.22C73.93 10.14 73.86 10.03 73.82 9.92C73.78 9.8 73.76 9.68 73.77 9.56C73.76 9.44 73.79 9.32 73.85 9.21C73.9 9.11 73.98 9.01 74.08 8.94C74.33 8.77 74.64 8.68 74.95 8.7C75.31 8.7 75.66 8.75 75.99 8.86C76.32 8.95 76.62 9.09 76.9 9.28L76.99 7.46C76.69 7.34 76.35 7.24 76.03 7.19C75.7 7.12 75.36 7.09 75.02 7.08ZM66.35 14.45C66.02 14.47 65.7 14.41 65.39 14.28C65.09 14.16 64.82 13.96 64.6 13.72C64.15 13.12 63.93 12.39 63.98 11.64C63.93 10.88 64.15 10.13 64.6 9.51C64.82 9.26 65.08 9.07 65.38 8.94C65.68 8.81 66.01 8.75 66.34 8.77C66.65 8.75 66.97 8.81 67.26 8.93C67.55 9.05 67.81 9.24 68.02 9.48C68.47 10.09 68.69 10.84 68.64 11.59C68.69 12.35 68.49 13.1 68.06 13.73C67.85 13.98 67.59 14.17 67.29 14.29C67 14.42 66.67 14.47 66.35 14.45ZM66.44 7.08C65.83 7.05 65.21 7.14 64.64 7.36C64.06 7.57 63.53 7.9 63.08 8.32C62.67 8.78 62.35 9.31 62.14 9.89C61.93 10.47 61.84 11.09 61.87 11.71C61.84 12.3 61.93 12.89 62.13 13.44C62.34 14 62.65 14.51 63.06 14.94C63.48 15.34 63.98 15.66 64.52 15.86C65.07 16.07 65.65 16.16 66.24 16.13C66.84 16.16 67.45 16.07 68.02 15.85C68.58 15.63 69.1 15.3 69.53 14.88C69.94 14.43 70.26 13.9 70.47 13.32C70.68 12.75 70.77 12.14 70.74 11.53C70.81 10.33 70.4 9.16 69.61 8.27C69.19 7.87 68.69 7.55 68.15 7.35C67.61 7.14 67.03 7.05 66.44 7.08ZM58.75 8.79L58.75 7.29L56.72 7.29L56.72 15.93L58.75 15.93L58.75 11.51C58.72 10.86 58.9 10.22 59.26 9.68C59.4 9.46 59.59 9.28 59.82 9.16C60.05 9.04 60.31 8.98 60.57 8.98C60.78 8.99 60.98 9.02 61.18 9.07C61.35 9.11 61.51 9.17 61.65 9.26L61.74 7.28C61.48 7.19 61.18 7.13 60.91 7.14C60.41 7.14 59.93 7.31 59.55 7.63C59.2 7.94 58.91 8.34 58.75 8.79ZM53.08 7.08C52.22 7.07 51.37 7.27 50.61 7.68C49.91 8.06 49.35 8.65 48.98 9.35C48.6 10.12 48.41 10.97 48.42 11.83C48.41 12.61 48.6 13.38 48.97 14.06C49.32 14.71 49.84 15.24 50.49 15.6C51.17 15.96 51.93 16.15 52.71 16.13C53.56 16.16 54.41 15.96 55.16 15.56L55.19 13.69C54.88 13.91 54.46 14.14 54.11 14.27C53.79 14.38 53.47 14.45 53.13 14.45C52.78 14.47 52.43 14.41 52.1 14.29C51.78 14.16 51.48 13.96 51.23 13.71C50.74 13.15 50.49 12.41 50.53 11.66C50.49 10.89 50.76 10.13 51.26 9.55C51.5 9.29 51.8 9.09 52.13 8.95C52.46 8.82 52.81 8.75 53.17 8.77C53.87 8.78 54.54 9.01 55.1 9.44L55.19 7.54C54.89 7.39 54.55 7.26 54.22 7.21C53.84 7.13 53.46 7.09 53.08 7.08ZM47.03 7.29L44.99 7.29L44.99 15.93L47.03 15.93L47.03 7.29ZM46.03 3.61C45.71 3.61 45.4 3.73 45.17 3.95C45.05 4.06 44.96 4.19 44.89 4.34C44.83 4.48 44.8 4.64 44.8 4.8C44.8 4.96 44.83 5.11 44.89 5.25C44.95 5.4 45.04 5.53 45.16 5.63C45.4 5.85 45.71 5.97 46.03 5.96C46.35 5.97 46.66 5.85 46.9 5.63C47.02 5.53 47.11 5.4 47.17 5.26C47.24 5.11 47.27 4.96 47.27 4.8C47.27 4.64 47.24 4.49 47.18 4.34C47.12 4.2 47.03 4.07 46.91 3.96C46.8 3.85 46.66 3.76 46.51 3.7C46.35 3.64 46.19 3.61 46.03 3.61ZM40.96 6.66L40.96 15.93L43.03 15.93L43.03 3.88L40.17 3.88L36.52 12.83L32.98 3.88L30 3.88L30 15.93L31.94 15.93L31.94 6.65L35.75 15.93L37.22 15.93L40.96 6.66Z" fill="#718087" fill-opacity="1.000000" fill-rule="nonzero"/>
	<path id="Vector" d="" fill="#707070" fill-opacity="0" fill-rule="evenodd"/>
	<path id="Vector" d="M9.55 9.55L0 9.55L0 0L9.55 0L9.55 9.55Z" fill="#718087" fill-opacity="1.000000" fill-rule="nonzero"/>
	<path id="Vector" d="" fill="#707070" fill-opacity="0" fill-rule="evenodd"/>
	<path id="Vector" d="M20.55 9.55L11 9.55L11 0L20.55 0L20.55 9.55Z" fill="#718087" fill-opacity="1.000000" fill-rule="nonzero"/>
	<path id="Vector" d="" fill="#707070" fill-opacity="0" fill-rule="evenodd"/>
	<path id="Vector" d="M9.55 20.55L0 20.55L0 11L9.55 11L9.55 20.55Z" fill="#718087" fill-opacity="1.000000" fill-rule="nonzero"/>
	<path id="Vector" d="" fill="#707070" fill-opacity="0" fill-rule="evenodd"/>
	<path id="Vector" d="M20.55 20.55L11 20.55L11 11L20.55 11L20.55 20.55Z" fill="#718087" fill-opacity="1.000000" fill-rule="nonzero"/>
	<path id="Vector" d="" fill="#707070" fill-opacity="0" fill-rule="evenodd"/>
</svg>
