<svg width="19.000000" height="16.000000" viewBox="0 0 19 16" fill="none" xmlns="http://www.w3.org/2000/svg" xmlns:xlink="http://www.w3.org/1999/xlink">
	<desc>
			Created with Pixso.
	</desc>
	<defs/>
	<path id="Vector" d="M18.46 1.82C17.75 2.12 17 2.33 16.22 2.43C17.02 1.95 17.64 1.19 17.93 0.28C17.18 0.73 16.35 1.05 15.47 1.22C14.75 0.46 13.74 0 12.63 0C10.49 0 8.76 1.74 8.76 3.88C8.76 4.18 8.78 4.48 8.85 4.76C5.62 4.6 2.77 3.06 0.85 0.7C0.52 1.28 0.32 1.95 0.32 2.66C0.32 4.01 1.01 5.2 2.04 5.89C1.42 5.88 0.81 5.69 0.29 5.41C0.29 7.29 1.63 8.9 3.4 9.26C3.08 9.35 2.74 9.39 2.38 9.39C2.13 9.39 1.88 9.38 1.65 9.33C2.15 10.86 3.57 11.99 5.27 12.03C3.95 13.06 2.28 13.68 0.46 13.68C0.14 13.68 -0.16 13.67 -0.47 13.63C1.25 14.74 3.29 15.37 5.48 15.37C12.62 15.37 16.53 9.46 16.53 4.33C16.53 4.16 16.52 3.99 16.51 3.83C17.28 3.28 17.93 2.6 18.46 1.82Z" fill="#000000" fill-opacity="1.000000" fill-rule="nonzero"/>
	<path id="Vector" d="" fill="#707070" fill-opacity="0" fill-rule="evenodd"/>
</svg>
