<svg width="75.000000" height="16.000000" viewBox="0 0 75 16" fill="none" xmlns="http://www.w3.org/2000/svg" xmlns:xlink="http://www.w3.org/1999/xlink">
	<desc>
			Created with Pixso.
	</desc>
	<defs/>
	<path id="Uber." d="M11.77 -0.66L14.66 -0.66L14.66 8.69C14.66 13.61 11.58 15.34 7.12 15.34C2.67 15.34 -0.4 13.61 -0.4 8.69L-0.4 -0.29C-0.4 -0.55 -0.28 -0.66 -0.02 -0.66L2.86 -0.66L2.86 8.54C2.86 11.49 4.14 12.71 7.12 12.71C10.11 12.71 11.39 11.49 11.39 8.54L11.39 -0.29C11.39 -0.55 11.52 -0.66 11.77 -0.66ZM44.42 1.9L44.42 5.84L51.72 5.84C51.85 5.84 51.9 5.9 51.85 6.03L51.05 8.05C50.97 8.23 50.86 8.32 50.62 8.32L46.34 8.32C44.93 8.32 44.42 8.76 44.42 9.72L44.42 12.5L54.3 12.5C54.43 12.5 54.48 12.57 54.43 12.7L53.6 14.8C53.52 14.98 53.41 15.06 53.17 15.06L42.35 15.06C41.52 15.06 41.2 14.77 41.2 14.13L41.2 0.43C41.2 -0.34 41.62 -0.66 42.7 -0.66L54.3 -0.66C54.43 -0.66 54.48 -0.6 54.43 -0.48L53.6 1.64C53.52 1.81 53.41 1.9 53.17 1.9L44.42 1.9ZM35.26 10.71C35.26 13.86 33.09 15.06 30.05 15.06L21.99 15.06C21.14 15.06 20.84 14.77 20.84 14.13L20.84 0.43C20.84 -0.34 21.24 -0.66 22.34 -0.66L28.89 -0.66C31.75 -0.66 34.53 -0.16 34.53 3.33C34.53 4.83 34 6.1 32.74 6.77C34.48 7.24 35.26 8.84 35.26 10.71ZM24.01 5.89L29.13 5.89C30.81 5.89 31.29 5.22 31.29 3.85C31.29 2.48 30.81 1.83 29.13 1.83L24.01 1.83L24.01 5.89ZM32.03 10.42C32.03 8.97 31.53 8.25 29.71 8.25L25.94 8.25C24.54 8.25 24.01 8.69 24.01 9.65L24.01 12.57L29.71 12.57C31.53 12.57 32.03 11.85 32.03 10.42ZM74.42 15.06L71.48 15.06C71.24 15.06 71.15 14.96 71.05 14.8L67.95 9.07L65.09 9.07C63.69 9.07 63.16 9.51 63.16 10.47L63.16 15.06L60.36 15.06C60.1 15.06 59.98 14.93 59.98 14.69L59.98 0.43C59.98 -0.34 60.39 -0.66 61.48 -0.66L68.06 -0.66C71.9 -0.66 74.21 0.36 74.21 4.18C74.21 7.13 72.82 8.28 71.1 8.74L74.56 14.78C74.62 14.88 74.62 15.06 74.42 15.06ZM70.97 4.24C70.97 2.65 70.54 1.86 68.53 1.86L63.16 1.86L63.16 6.62L68.53 6.62C70.54 6.62 70.97 5.86 70.97 4.24Z" fill="#718087" fill-opacity="1.000000" fill-rule="nonzero"/>
	<path id="Uber." d="" fill="#707070" fill-opacity="0" fill-rule="evenodd"/>
</svg>
